<svg id="visual" viewBox="0 0 900 600" width="900" height="600" xmlns="http://www.w3.org/2000/svg" xmlns:xlink="http://www.w3.org/1999/xlink" version="1.1"><rect x="0" y="0" width="900" height="600" fill="none"></rect><path d="M0 247L180 175L360 315L540 112L720 111L900 106L900 601L720 601L540 601L360 601L180 601L0 601Z" fill="#362a84"></path><path d="M0 351L180 385L360 316L540 223L720 154L900 353L900 601L720 601L540 601L360 601L180 601L0 601Z" fill="#3e2d90"></path><path d="M0 387L180 393L360 430L540 251L720 304L900 327L900 601L720 601L540 601L360 601L180 601L0 601Z" fill="#47309c"></path><path d="M0 476L180 400L360 428L540 379L720 504L900 511L900 601L720 601L540 601L360 601L180 601L0 601Z" fill="#5033a8"></path><path d="M0 561L180 433L360 456L540 534L720 501L900 528L900 601L720 601L540 601L360 601L180 601L0 601Z" fill="#5936b4"></path></svg>